<mxfile host="Electron" modified="2023-07-25T10:45:48.481Z" agent="Mozilla/5.0 (Macintosh; Intel Mac OS X 10_15_7) AppleWebKit/537.36 (KHTML, like Gecko) draw.io/21.6.5 Chrome/114.0.5735.243 Electron/25.3.1 Safari/537.36" etag="pi9c6osSl9jw_HpTMAfZ" version="21.6.5" type="device">
  <diagram name="Page-1" id="joOFA0rlE12X3q9pTDwf">
    <mxGraphModel dx="2133" dy="830" grid="1" gridSize="10" guides="1" tooltips="1" connect="1" arrows="1" fold="1" page="1" pageScale="1" pageWidth="827" pageHeight="1169" math="0" shadow="0">
      <root>
        <mxCell id="0" />
        <mxCell id="1" parent="0" />
        <mxCell id="bNz2frpq777b6b2rO7nt-34" value="" style="edgeStyle=orthogonalEdgeStyle;rounded=0;orthogonalLoop=1;jettySize=auto;html=1;" edge="1" parent="1" source="bNz2frpq777b6b2rO7nt-1" target="bNz2frpq777b6b2rO7nt-2">
          <mxGeometry relative="1" as="geometry" />
        </mxCell>
        <mxCell id="bNz2frpq777b6b2rO7nt-1" value="stopped" style="strokeWidth=2;html=1;shape=mxgraph.flowchart.start_2;whiteSpace=wrap;fillColor=#d5e8d4;strokeColor=#82b366;" vertex="1" parent="1">
          <mxGeometry x="360" y="40" width="120" height="120" as="geometry" />
        </mxCell>
        <mxCell id="bNz2frpq777b6b2rO7nt-35" value="" style="edgeStyle=orthogonalEdgeStyle;rounded=0;orthogonalLoop=1;jettySize=auto;html=1;" edge="1" parent="1" source="bNz2frpq777b6b2rO7nt-2" target="bNz2frpq777b6b2rO7nt-30">
          <mxGeometry relative="1" as="geometry" />
        </mxCell>
        <mxCell id="bNz2frpq777b6b2rO7nt-36" value="No" style="edgeLabel;html=1;align=center;verticalAlign=middle;resizable=0;points=[];" vertex="1" connectable="0" parent="bNz2frpq777b6b2rO7nt-35">
          <mxGeometry x="-0.1" y="1" relative="1" as="geometry">
            <mxPoint as="offset" />
          </mxGeometry>
        </mxCell>
        <mxCell id="bNz2frpq777b6b2rO7nt-41" value="" style="edgeStyle=orthogonalEdgeStyle;rounded=0;orthogonalLoop=1;jettySize=auto;html=1;" edge="1" parent="1" source="bNz2frpq777b6b2rO7nt-2" target="bNz2frpq777b6b2rO7nt-40">
          <mxGeometry relative="1" as="geometry" />
        </mxCell>
        <mxCell id="bNz2frpq777b6b2rO7nt-42" value="Yes" style="edgeLabel;html=1;align=center;verticalAlign=middle;resizable=0;points=[];" vertex="1" connectable="0" parent="bNz2frpq777b6b2rO7nt-41">
          <mxGeometry relative="1" as="geometry">
            <mxPoint as="offset" />
          </mxGeometry>
        </mxCell>
        <mxCell id="bNz2frpq777b6b2rO7nt-2" value="vehicle ahead?" style="strokeWidth=2;html=1;shape=mxgraph.flowchart.decision;whiteSpace=wrap;" vertex="1" parent="1">
          <mxGeometry x="360" y="200" width="120" height="120" as="geometry" />
        </mxCell>
        <mxCell id="bNz2frpq777b6b2rO7nt-38" style="edgeStyle=orthogonalEdgeStyle;rounded=0;orthogonalLoop=1;jettySize=auto;html=1;exitX=1;exitY=0.5;exitDx=0;exitDy=0;exitPerimeter=0;entryX=0;entryY=0.5;entryDx=0;entryDy=0;entryPerimeter=0;" edge="1" parent="1" source="bNz2frpq777b6b2rO7nt-30" target="bNz2frpq777b6b2rO7nt-37">
          <mxGeometry relative="1" as="geometry" />
        </mxCell>
        <mxCell id="bNz2frpq777b6b2rO7nt-39" value="Yes" style="edgeLabel;html=1;align=center;verticalAlign=middle;resizable=0;points=[];" vertex="1" connectable="0" parent="bNz2frpq777b6b2rO7nt-38">
          <mxGeometry x="-0.1" y="1" relative="1" as="geometry">
            <mxPoint as="offset" />
          </mxGeometry>
        </mxCell>
        <mxCell id="bNz2frpq777b6b2rO7nt-100" style="edgeStyle=orthogonalEdgeStyle;rounded=1;orthogonalLoop=1;jettySize=auto;html=1;exitX=0.5;exitY=1;exitDx=0;exitDy=0;exitPerimeter=0;entryX=0.75;entryY=0;entryDx=0;entryDy=0;" edge="1" parent="1" source="bNz2frpq777b6b2rO7nt-30" target="bNz2frpq777b6b2rO7nt-47">
          <mxGeometry relative="1" as="geometry" />
        </mxCell>
        <mxCell id="bNz2frpq777b6b2rO7nt-30" value="TFC ahead?" style="strokeWidth=2;html=1;shape=mxgraph.flowchart.decision;whiteSpace=wrap;" vertex="1" parent="1">
          <mxGeometry x="520" y="200" width="120" height="120" as="geometry" />
        </mxCell>
        <mxCell id="bNz2frpq777b6b2rO7nt-45" style="edgeStyle=orthogonalEdgeStyle;rounded=1;orthogonalLoop=1;jettySize=auto;html=1;exitX=0.5;exitY=0;exitDx=0;exitDy=0;exitPerimeter=0;entryX=1;entryY=0.5;entryDx=0;entryDy=0;entryPerimeter=0;" edge="1" parent="1" source="bNz2frpq777b6b2rO7nt-37" target="bNz2frpq777b6b2rO7nt-1">
          <mxGeometry relative="1" as="geometry" />
        </mxCell>
        <mxCell id="bNz2frpq777b6b2rO7nt-46" value="Yes" style="edgeLabel;html=1;align=center;verticalAlign=middle;resizable=0;points=[];" vertex="1" connectable="0" parent="bNz2frpq777b6b2rO7nt-45">
          <mxGeometry x="-0.5556" y="1" relative="1" as="geometry">
            <mxPoint as="offset" />
          </mxGeometry>
        </mxCell>
        <mxCell id="bNz2frpq777b6b2rO7nt-48" style="edgeStyle=orthogonalEdgeStyle;rounded=1;orthogonalLoop=1;jettySize=auto;html=1;exitX=0.5;exitY=1;exitDx=0;exitDy=0;exitPerimeter=0;entryX=0.75;entryY=0;entryDx=0;entryDy=0;" edge="1" parent="1" source="bNz2frpq777b6b2rO7nt-37" target="bNz2frpq777b6b2rO7nt-47">
          <mxGeometry relative="1" as="geometry" />
        </mxCell>
        <mxCell id="bNz2frpq777b6b2rO7nt-50" value="No" style="edgeLabel;html=1;align=center;verticalAlign=middle;resizable=0;points=[];" vertex="1" connectable="0" parent="bNz2frpq777b6b2rO7nt-48">
          <mxGeometry x="-0.6485" y="1" relative="1" as="geometry">
            <mxPoint x="-162" as="offset" />
          </mxGeometry>
        </mxCell>
        <mxCell id="bNz2frpq777b6b2rO7nt-37" value="must stop?" style="strokeWidth=2;html=1;shape=mxgraph.flowchart.decision;whiteSpace=wrap;" vertex="1" parent="1">
          <mxGeometry x="680" y="200" width="120" height="120" as="geometry" />
        </mxCell>
        <mxCell id="bNz2frpq777b6b2rO7nt-43" style="edgeStyle=orthogonalEdgeStyle;rounded=1;orthogonalLoop=1;jettySize=auto;html=1;exitX=0.5;exitY=0;exitDx=0;exitDy=0;exitPerimeter=0;entryX=0;entryY=0.5;entryDx=0;entryDy=0;entryPerimeter=0;" edge="1" parent="1" source="bNz2frpq777b6b2rO7nt-40" target="bNz2frpq777b6b2rO7nt-1">
          <mxGeometry relative="1" as="geometry" />
        </mxCell>
        <mxCell id="bNz2frpq777b6b2rO7nt-44" value="Yes" style="edgeLabel;html=1;align=center;verticalAlign=middle;resizable=0;points=[];" vertex="1" connectable="0" parent="bNz2frpq777b6b2rO7nt-43">
          <mxGeometry x="-0.28" y="-1" relative="1" as="geometry">
            <mxPoint as="offset" />
          </mxGeometry>
        </mxCell>
        <mxCell id="bNz2frpq777b6b2rO7nt-49" style="edgeStyle=orthogonalEdgeStyle;rounded=1;orthogonalLoop=1;jettySize=auto;html=1;exitX=0.5;exitY=1;exitDx=0;exitDy=0;exitPerimeter=0;entryX=0.25;entryY=0;entryDx=0;entryDy=0;" edge="1" parent="1" source="bNz2frpq777b6b2rO7nt-40" target="bNz2frpq777b6b2rO7nt-47">
          <mxGeometry relative="1" as="geometry" />
        </mxCell>
        <mxCell id="bNz2frpq777b6b2rO7nt-51" value="No" style="edgeLabel;html=1;align=center;verticalAlign=middle;resizable=0;points=[];" vertex="1" connectable="0" parent="bNz2frpq777b6b2rO7nt-49">
          <mxGeometry x="-0.4118" relative="1" as="geometry">
            <mxPoint as="offset" />
          </mxGeometry>
        </mxCell>
        <mxCell id="bNz2frpq777b6b2rO7nt-40" value="is&lt;br&gt;stopped, or&lt;br&gt;crashed?" style="strokeWidth=2;html=1;shape=mxgraph.flowchart.decision;whiteSpace=wrap;" vertex="1" parent="1">
          <mxGeometry x="200" y="200" width="120" height="120" as="geometry" />
        </mxCell>
        <mxCell id="bNz2frpq777b6b2rO7nt-80" value="" style="edgeStyle=orthogonalEdgeStyle;rounded=0;orthogonalLoop=1;jettySize=auto;html=1;" edge="1" parent="1" source="bNz2frpq777b6b2rO7nt-47" target="bNz2frpq777b6b2rO7nt-59">
          <mxGeometry relative="1" as="geometry" />
        </mxCell>
        <mxCell id="bNz2frpq777b6b2rO7nt-47" value="accelerating" style="rounded=1;whiteSpace=wrap;html=1;absoluteArcSize=1;arcSize=14;strokeWidth=2;fillColor=#dae8fc;strokeColor=#6c8ebf;" vertex="1" parent="1">
          <mxGeometry x="360" y="360" width="120" height="80" as="geometry" />
        </mxCell>
        <mxCell id="bNz2frpq777b6b2rO7nt-89" style="edgeStyle=orthogonalEdgeStyle;rounded=1;orthogonalLoop=1;jettySize=auto;html=1;exitX=0.5;exitY=0;exitDx=0;exitDy=0;exitPerimeter=0;entryX=0;entryY=0.5;entryDx=0;entryDy=0;" edge="1" parent="1" source="bNz2frpq777b6b2rO7nt-52" target="bNz2frpq777b6b2rO7nt-47">
          <mxGeometry relative="1" as="geometry" />
        </mxCell>
        <mxCell id="bNz2frpq777b6b2rO7nt-90" value="No" style="edgeLabel;html=1;align=center;verticalAlign=middle;resizable=0;points=[];" vertex="1" connectable="0" parent="bNz2frpq777b6b2rO7nt-89">
          <mxGeometry x="-0.85" relative="1" as="geometry">
            <mxPoint y="1" as="offset" />
          </mxGeometry>
        </mxCell>
        <mxCell id="bNz2frpq777b6b2rO7nt-96" style="edgeStyle=orthogonalEdgeStyle;rounded=1;orthogonalLoop=1;jettySize=auto;html=1;exitX=0.5;exitY=1;exitDx=0;exitDy=0;exitPerimeter=0;entryX=0.5;entryY=0;entryDx=0;entryDy=0;" edge="1" parent="1" source="bNz2frpq777b6b2rO7nt-52" target="bNz2frpq777b6b2rO7nt-67">
          <mxGeometry relative="1" as="geometry" />
        </mxCell>
        <mxCell id="bNz2frpq777b6b2rO7nt-99" value="Yes" style="edgeLabel;html=1;align=center;verticalAlign=middle;resizable=0;points=[];" vertex="1" connectable="0" parent="bNz2frpq777b6b2rO7nt-96">
          <mxGeometry x="-0.7389" relative="1" as="geometry">
            <mxPoint x="163" y="1" as="offset" />
          </mxGeometry>
        </mxCell>
        <mxCell id="bNz2frpq777b6b2rO7nt-52" value="is faster than&lt;br&gt;speed limit?" style="strokeWidth=2;html=1;shape=mxgraph.flowchart.decision;whiteSpace=wrap;fillColor=#f5f5f5;fontColor=#333333;strokeColor=#666666;" vertex="1" parent="1">
          <mxGeometry x="40" y="480" width="120" height="120" as="geometry" />
        </mxCell>
        <mxCell id="bNz2frpq777b6b2rO7nt-55" value="" style="edgeStyle=orthogonalEdgeStyle;rounded=0;orthogonalLoop=1;jettySize=auto;html=1;" edge="1" parent="1" source="bNz2frpq777b6b2rO7nt-59" target="bNz2frpq777b6b2rO7nt-62">
          <mxGeometry relative="1" as="geometry" />
        </mxCell>
        <mxCell id="bNz2frpq777b6b2rO7nt-56" value="No" style="edgeLabel;html=1;align=center;verticalAlign=middle;resizable=0;points=[];" vertex="1" connectable="0" parent="bNz2frpq777b6b2rO7nt-55">
          <mxGeometry x="-0.1" y="1" relative="1" as="geometry">
            <mxPoint as="offset" />
          </mxGeometry>
        </mxCell>
        <mxCell id="bNz2frpq777b6b2rO7nt-57" value="" style="edgeStyle=orthogonalEdgeStyle;rounded=0;orthogonalLoop=1;jettySize=auto;html=1;" edge="1" parent="1" source="bNz2frpq777b6b2rO7nt-59" target="bNz2frpq777b6b2rO7nt-64">
          <mxGeometry relative="1" as="geometry" />
        </mxCell>
        <mxCell id="bNz2frpq777b6b2rO7nt-58" value="Yes" style="edgeLabel;html=1;align=center;verticalAlign=middle;resizable=0;points=[];" vertex="1" connectable="0" parent="bNz2frpq777b6b2rO7nt-57">
          <mxGeometry relative="1" as="geometry">
            <mxPoint as="offset" />
          </mxGeometry>
        </mxCell>
        <mxCell id="bNz2frpq777b6b2rO7nt-59" value="vehicle ahead?" style="strokeWidth=2;html=1;shape=mxgraph.flowchart.decision;whiteSpace=wrap;" vertex="1" parent="1">
          <mxGeometry x="360" y="480" width="120" height="120" as="geometry" />
        </mxCell>
        <mxCell id="bNz2frpq777b6b2rO7nt-60" style="edgeStyle=orthogonalEdgeStyle;rounded=0;orthogonalLoop=1;jettySize=auto;html=1;exitX=1;exitY=0.5;exitDx=0;exitDy=0;exitPerimeter=0;entryX=0;entryY=0.5;entryDx=0;entryDy=0;entryPerimeter=0;" edge="1" parent="1" source="bNz2frpq777b6b2rO7nt-62" target="bNz2frpq777b6b2rO7nt-63">
          <mxGeometry relative="1" as="geometry" />
        </mxCell>
        <mxCell id="bNz2frpq777b6b2rO7nt-61" value="Yes" style="edgeLabel;html=1;align=center;verticalAlign=middle;resizable=0;points=[];" vertex="1" connectable="0" parent="bNz2frpq777b6b2rO7nt-60">
          <mxGeometry x="-0.1" y="1" relative="1" as="geometry">
            <mxPoint as="offset" />
          </mxGeometry>
        </mxCell>
        <mxCell id="bNz2frpq777b6b2rO7nt-103" style="edgeStyle=orthogonalEdgeStyle;rounded=1;orthogonalLoop=1;jettySize=auto;html=1;exitX=0.5;exitY=0;exitDx=0;exitDy=0;exitPerimeter=0;entryX=0;entryY=0.5;entryDx=0;entryDy=0;entryPerimeter=0;" edge="1" parent="1" source="bNz2frpq777b6b2rO7nt-62" target="bNz2frpq777b6b2rO7nt-91">
          <mxGeometry relative="1" as="geometry">
            <Array as="points">
              <mxPoint x="580" y="460" />
              <mxPoint x="820" y="460" />
              <mxPoint x="820" y="540" />
            </Array>
          </mxGeometry>
        </mxCell>
        <mxCell id="bNz2frpq777b6b2rO7nt-104" value="No" style="edgeLabel;html=1;align=center;verticalAlign=middle;resizable=0;points=[];" vertex="1" connectable="0" parent="bNz2frpq777b6b2rO7nt-103">
          <mxGeometry x="-0.7167" y="2" relative="1" as="geometry">
            <mxPoint y="1" as="offset" />
          </mxGeometry>
        </mxCell>
        <mxCell id="bNz2frpq777b6b2rO7nt-62" value="TFC ahead?" style="strokeWidth=2;html=1;shape=mxgraph.flowchart.decision;whiteSpace=wrap;" vertex="1" parent="1">
          <mxGeometry x="520" y="480" width="120" height="120" as="geometry" />
        </mxCell>
        <mxCell id="bNz2frpq777b6b2rO7nt-92" style="edgeStyle=orthogonalEdgeStyle;rounded=0;orthogonalLoop=1;jettySize=auto;html=1;exitX=1;exitY=0.5;exitDx=0;exitDy=0;exitPerimeter=0;entryX=0;entryY=0.5;entryDx=0;entryDy=0;entryPerimeter=0;" edge="1" parent="1" source="bNz2frpq777b6b2rO7nt-63" target="bNz2frpq777b6b2rO7nt-91">
          <mxGeometry relative="1" as="geometry" />
        </mxCell>
        <mxCell id="bNz2frpq777b6b2rO7nt-93" value="No" style="edgeLabel;html=1;align=center;verticalAlign=middle;resizable=0;points=[];" vertex="1" connectable="0" parent="bNz2frpq777b6b2rO7nt-92">
          <mxGeometry x="-0.05" y="-1" relative="1" as="geometry">
            <mxPoint y="1" as="offset" />
          </mxGeometry>
        </mxCell>
        <mxCell id="bNz2frpq777b6b2rO7nt-101" style="edgeStyle=orthogonalEdgeStyle;rounded=1;orthogonalLoop=1;jettySize=auto;html=1;exitX=0.5;exitY=1;exitDx=0;exitDy=0;exitPerimeter=0;" edge="1" parent="1" source="bNz2frpq777b6b2rO7nt-63">
          <mxGeometry relative="1" as="geometry">
            <mxPoint x="420" y="640" as="targetPoint" />
          </mxGeometry>
        </mxCell>
        <mxCell id="bNz2frpq777b6b2rO7nt-63" value="must stop?" style="strokeWidth=2;html=1;shape=mxgraph.flowchart.decision;whiteSpace=wrap;" vertex="1" parent="1">
          <mxGeometry x="680" y="480" width="120" height="120" as="geometry" />
        </mxCell>
        <mxCell id="bNz2frpq777b6b2rO7nt-87" style="edgeStyle=orthogonalEdgeStyle;rounded=0;orthogonalLoop=1;jettySize=auto;html=1;exitX=0;exitY=0.5;exitDx=0;exitDy=0;exitPerimeter=0;entryX=1;entryY=0.5;entryDx=0;entryDy=0;entryPerimeter=0;" edge="1" parent="1" source="bNz2frpq777b6b2rO7nt-64" target="bNz2frpq777b6b2rO7nt-52">
          <mxGeometry relative="1" as="geometry" />
        </mxCell>
        <mxCell id="bNz2frpq777b6b2rO7nt-88" value="No" style="edgeLabel;html=1;align=center;verticalAlign=middle;resizable=0;points=[];" vertex="1" connectable="0" parent="bNz2frpq777b6b2rO7nt-87">
          <mxGeometry y="2" relative="1" as="geometry">
            <mxPoint as="offset" />
          </mxGeometry>
        </mxCell>
        <mxCell id="bNz2frpq777b6b2rO7nt-105" style="edgeStyle=orthogonalEdgeStyle;rounded=1;orthogonalLoop=1;jettySize=auto;html=1;exitX=0.5;exitY=1;exitDx=0;exitDy=0;exitPerimeter=0;entryX=0.5;entryY=0;entryDx=0;entryDy=0;" edge="1" parent="1" source="bNz2frpq777b6b2rO7nt-64" target="bNz2frpq777b6b2rO7nt-67">
          <mxGeometry relative="1" as="geometry" />
        </mxCell>
        <mxCell id="bNz2frpq777b6b2rO7nt-64" value="is slower,&lt;br&gt;stopped, or&lt;br&gt;crashed?" style="strokeWidth=2;html=1;shape=mxgraph.flowchart.decision;whiteSpace=wrap;" vertex="1" parent="1">
          <mxGeometry x="200" y="480" width="120" height="120" as="geometry" />
        </mxCell>
        <mxCell id="bNz2frpq777b6b2rO7nt-124" style="edgeStyle=orthogonalEdgeStyle;rounded=0;orthogonalLoop=1;jettySize=auto;html=1;exitX=0.5;exitY=1;exitDx=0;exitDy=0;entryX=0.5;entryY=0;entryDx=0;entryDy=0;entryPerimeter=0;" edge="1" parent="1" source="bNz2frpq777b6b2rO7nt-67" target="bNz2frpq777b6b2rO7nt-111">
          <mxGeometry relative="1" as="geometry" />
        </mxCell>
        <mxCell id="bNz2frpq777b6b2rO7nt-67" value="decelerating" style="rounded=1;whiteSpace=wrap;html=1;absoluteArcSize=1;arcSize=14;strokeWidth=2;fillColor=#ffe6cc;strokeColor=#d79b00;" vertex="1" parent="1">
          <mxGeometry x="360" y="640" width="120" height="80" as="geometry" />
        </mxCell>
        <mxCell id="bNz2frpq777b6b2rO7nt-94" style="edgeStyle=orthogonalEdgeStyle;rounded=1;orthogonalLoop=1;jettySize=auto;html=1;exitX=0.5;exitY=0;exitDx=0;exitDy=0;exitPerimeter=0;entryX=1;entryY=0.5;entryDx=0;entryDy=0;" edge="1" parent="1" source="bNz2frpq777b6b2rO7nt-91" target="bNz2frpq777b6b2rO7nt-47">
          <mxGeometry relative="1" as="geometry" />
        </mxCell>
        <mxCell id="bNz2frpq777b6b2rO7nt-95" value="No" style="edgeLabel;html=1;align=center;verticalAlign=middle;resizable=0;points=[];" vertex="1" connectable="0" parent="bNz2frpq777b6b2rO7nt-94">
          <mxGeometry x="-0.898" relative="1" as="geometry">
            <mxPoint as="offset" />
          </mxGeometry>
        </mxCell>
        <mxCell id="bNz2frpq777b6b2rO7nt-97" style="edgeStyle=orthogonalEdgeStyle;rounded=1;orthogonalLoop=1;jettySize=auto;html=1;exitX=0.5;exitY=1;exitDx=0;exitDy=0;exitPerimeter=0;" edge="1" parent="1" source="bNz2frpq777b6b2rO7nt-91">
          <mxGeometry relative="1" as="geometry">
            <mxPoint x="420" y="640" as="targetPoint" />
          </mxGeometry>
        </mxCell>
        <mxCell id="bNz2frpq777b6b2rO7nt-98" value="Yes" style="edgeLabel;html=1;align=center;verticalAlign=middle;resizable=0;points=[];" vertex="1" connectable="0" parent="bNz2frpq777b6b2rO7nt-97">
          <mxGeometry x="-0.7998" y="1" relative="1" as="geometry">
            <mxPoint x="-178" as="offset" />
          </mxGeometry>
        </mxCell>
        <mxCell id="bNz2frpq777b6b2rO7nt-91" value="is faster than&lt;br&gt;speed limit?" style="strokeWidth=2;html=1;shape=mxgraph.flowchart.decision;whiteSpace=wrap;fillColor=#f5f5f5;fontColor=#333333;strokeColor=#666666;" vertex="1" parent="1">
          <mxGeometry x="840" y="480" width="120" height="120" as="geometry" />
        </mxCell>
        <mxCell id="bNz2frpq777b6b2rO7nt-125" style="edgeStyle=orthogonalEdgeStyle;rounded=1;orthogonalLoop=1;jettySize=auto;html=1;exitX=0.5;exitY=0;exitDx=0;exitDy=0;exitPerimeter=0;entryX=0;entryY=0.5;entryDx=0;entryDy=0;" edge="1" parent="1" source="bNz2frpq777b6b2rO7nt-106" target="bNz2frpq777b6b2rO7nt-67">
          <mxGeometry relative="1" as="geometry" />
        </mxCell>
        <mxCell id="bNz2frpq777b6b2rO7nt-126" value="Yes" style="edgeLabel;html=1;align=center;verticalAlign=middle;resizable=0;points=[];" vertex="1" connectable="0" parent="bNz2frpq777b6b2rO7nt-125">
          <mxGeometry x="-0.8676" relative="1" as="geometry">
            <mxPoint y="1" as="offset" />
          </mxGeometry>
        </mxCell>
        <mxCell id="bNz2frpq777b6b2rO7nt-140" style="edgeStyle=orthogonalEdgeStyle;rounded=1;orthogonalLoop=1;jettySize=auto;html=1;exitX=0;exitY=0.5;exitDx=0;exitDy=0;exitPerimeter=0;entryX=0;entryY=0.25;entryDx=0;entryDy=0;" edge="1" parent="1" source="bNz2frpq777b6b2rO7nt-106" target="bNz2frpq777b6b2rO7nt-47">
          <mxGeometry relative="1" as="geometry" />
        </mxCell>
        <mxCell id="bNz2frpq777b6b2rO7nt-141" value="No" style="edgeLabel;html=1;align=center;verticalAlign=middle;resizable=0;points=[];" vertex="1" connectable="0" parent="bNz2frpq777b6b2rO7nt-140">
          <mxGeometry x="-0.8487" relative="1" as="geometry">
            <mxPoint y="1" as="offset" />
          </mxGeometry>
        </mxCell>
        <mxCell id="bNz2frpq777b6b2rO7nt-106" value="is faster than&lt;br&gt;speed limit?" style="strokeWidth=2;html=1;shape=mxgraph.flowchart.decision;whiteSpace=wrap;fillColor=#f5f5f5;fontColor=#333333;strokeColor=#666666;" vertex="1" parent="1">
          <mxGeometry x="40" y="760" width="120" height="120" as="geometry" />
        </mxCell>
        <mxCell id="bNz2frpq777b6b2rO7nt-107" value="" style="edgeStyle=orthogonalEdgeStyle;rounded=0;orthogonalLoop=1;jettySize=auto;html=1;" edge="1" parent="1" source="bNz2frpq777b6b2rO7nt-111" target="bNz2frpq777b6b2rO7nt-116">
          <mxGeometry relative="1" as="geometry" />
        </mxCell>
        <mxCell id="bNz2frpq777b6b2rO7nt-108" value="No" style="edgeLabel;html=1;align=center;verticalAlign=middle;resizable=0;points=[];" vertex="1" connectable="0" parent="bNz2frpq777b6b2rO7nt-107">
          <mxGeometry x="-0.1" y="1" relative="1" as="geometry">
            <mxPoint as="offset" />
          </mxGeometry>
        </mxCell>
        <mxCell id="bNz2frpq777b6b2rO7nt-109" value="" style="edgeStyle=orthogonalEdgeStyle;rounded=0;orthogonalLoop=1;jettySize=auto;html=1;" edge="1" parent="1" source="bNz2frpq777b6b2rO7nt-111" target="bNz2frpq777b6b2rO7nt-122">
          <mxGeometry relative="1" as="geometry" />
        </mxCell>
        <mxCell id="bNz2frpq777b6b2rO7nt-110" value="Yes" style="edgeLabel;html=1;align=center;verticalAlign=middle;resizable=0;points=[];" vertex="1" connectable="0" parent="bNz2frpq777b6b2rO7nt-109">
          <mxGeometry relative="1" as="geometry">
            <mxPoint as="offset" />
          </mxGeometry>
        </mxCell>
        <mxCell id="bNz2frpq777b6b2rO7nt-111" value="vehicle ahead?" style="strokeWidth=2;html=1;shape=mxgraph.flowchart.decision;whiteSpace=wrap;" vertex="1" parent="1">
          <mxGeometry x="360" y="760" width="120" height="120" as="geometry" />
        </mxCell>
        <mxCell id="bNz2frpq777b6b2rO7nt-112" style="edgeStyle=orthogonalEdgeStyle;rounded=0;orthogonalLoop=1;jettySize=auto;html=1;exitX=1;exitY=0.5;exitDx=0;exitDy=0;exitPerimeter=0;entryX=0;entryY=0.5;entryDx=0;entryDy=0;entryPerimeter=0;" edge="1" parent="1" source="bNz2frpq777b6b2rO7nt-116" target="bNz2frpq777b6b2rO7nt-119">
          <mxGeometry relative="1" as="geometry" />
        </mxCell>
        <mxCell id="bNz2frpq777b6b2rO7nt-113" value="Yes" style="edgeLabel;html=1;align=center;verticalAlign=middle;resizable=0;points=[];" vertex="1" connectable="0" parent="bNz2frpq777b6b2rO7nt-112">
          <mxGeometry x="-0.1" y="1" relative="1" as="geometry">
            <mxPoint as="offset" />
          </mxGeometry>
        </mxCell>
        <mxCell id="bNz2frpq777b6b2rO7nt-127" style="edgeStyle=orthogonalEdgeStyle;rounded=1;orthogonalLoop=1;jettySize=auto;html=1;exitX=0.5;exitY=0;exitDx=0;exitDy=0;exitPerimeter=0;entryX=0;entryY=0.5;entryDx=0;entryDy=0;entryPerimeter=0;" edge="1" parent="1" source="bNz2frpq777b6b2rO7nt-116" target="bNz2frpq777b6b2rO7nt-123">
          <mxGeometry relative="1" as="geometry">
            <Array as="points">
              <mxPoint x="580" y="740" />
              <mxPoint x="820" y="740" />
              <mxPoint x="820" y="820" />
            </Array>
          </mxGeometry>
        </mxCell>
        <mxCell id="bNz2frpq777b6b2rO7nt-128" value="No" style="edgeLabel;html=1;align=center;verticalAlign=middle;resizable=0;points=[];" vertex="1" connectable="0" parent="bNz2frpq777b6b2rO7nt-127">
          <mxGeometry x="-0.7611" y="3" relative="1" as="geometry">
            <mxPoint y="1" as="offset" />
          </mxGeometry>
        </mxCell>
        <mxCell id="bNz2frpq777b6b2rO7nt-116" value="TFC ahead?" style="strokeWidth=2;html=1;shape=mxgraph.flowchart.decision;whiteSpace=wrap;" vertex="1" parent="1">
          <mxGeometry x="520" y="760" width="120" height="120" as="geometry" />
        </mxCell>
        <mxCell id="bNz2frpq777b6b2rO7nt-117" style="edgeStyle=orthogonalEdgeStyle;rounded=0;orthogonalLoop=1;jettySize=auto;html=1;exitX=1;exitY=0.5;exitDx=0;exitDy=0;exitPerimeter=0;entryX=0;entryY=0.5;entryDx=0;entryDy=0;entryPerimeter=0;" edge="1" parent="1" source="bNz2frpq777b6b2rO7nt-119" target="bNz2frpq777b6b2rO7nt-123">
          <mxGeometry relative="1" as="geometry" />
        </mxCell>
        <mxCell id="bNz2frpq777b6b2rO7nt-118" value="No" style="edgeLabel;html=1;align=center;verticalAlign=middle;resizable=0;points=[];" vertex="1" connectable="0" parent="bNz2frpq777b6b2rO7nt-117">
          <mxGeometry x="-0.05" y="-1" relative="1" as="geometry">
            <mxPoint y="1" as="offset" />
          </mxGeometry>
        </mxCell>
        <mxCell id="bNz2frpq777b6b2rO7nt-132" style="edgeStyle=orthogonalEdgeStyle;rounded=0;orthogonalLoop=1;jettySize=auto;html=1;exitX=0.5;exitY=1;exitDx=0;exitDy=0;exitPerimeter=0;entryX=0.5;entryY=0;entryDx=0;entryDy=0;entryPerimeter=0;" edge="1" parent="1" source="bNz2frpq777b6b2rO7nt-119" target="bNz2frpq777b6b2rO7nt-131">
          <mxGeometry relative="1" as="geometry" />
        </mxCell>
        <mxCell id="bNz2frpq777b6b2rO7nt-133" value="Yes" style="edgeLabel;html=1;align=center;verticalAlign=middle;resizable=0;points=[];" vertex="1" connectable="0" parent="bNz2frpq777b6b2rO7nt-132">
          <mxGeometry x="-0.025" y="4" relative="1" as="geometry">
            <mxPoint as="offset" />
          </mxGeometry>
        </mxCell>
        <mxCell id="bNz2frpq777b6b2rO7nt-119" value="must stop?" style="strokeWidth=2;html=1;shape=mxgraph.flowchart.decision;whiteSpace=wrap;" vertex="1" parent="1">
          <mxGeometry x="680" y="760" width="120" height="120" as="geometry" />
        </mxCell>
        <mxCell id="bNz2frpq777b6b2rO7nt-120" style="edgeStyle=orthogonalEdgeStyle;rounded=0;orthogonalLoop=1;jettySize=auto;html=1;exitX=0;exitY=0.5;exitDx=0;exitDy=0;exitPerimeter=0;entryX=1;entryY=0.5;entryDx=0;entryDy=0;entryPerimeter=0;" edge="1" parent="1" source="bNz2frpq777b6b2rO7nt-122" target="bNz2frpq777b6b2rO7nt-106">
          <mxGeometry relative="1" as="geometry" />
        </mxCell>
        <mxCell id="bNz2frpq777b6b2rO7nt-121" value="No" style="edgeLabel;html=1;align=center;verticalAlign=middle;resizable=0;points=[];" vertex="1" connectable="0" parent="bNz2frpq777b6b2rO7nt-120">
          <mxGeometry y="2" relative="1" as="geometry">
            <mxPoint as="offset" />
          </mxGeometry>
        </mxCell>
        <mxCell id="bNz2frpq777b6b2rO7nt-138" style="edgeStyle=orthogonalEdgeStyle;rounded=1;orthogonalLoop=1;jettySize=auto;html=1;exitX=0.5;exitY=1;exitDx=0;exitDy=0;exitPerimeter=0;entryX=0.5;entryY=0;entryDx=0;entryDy=0;entryPerimeter=0;" edge="1" parent="1" source="bNz2frpq777b6b2rO7nt-122" target="bNz2frpq777b6b2rO7nt-131">
          <mxGeometry relative="1" as="geometry" />
        </mxCell>
        <mxCell id="bNz2frpq777b6b2rO7nt-139" value="Yes" style="edgeLabel;html=1;align=center;verticalAlign=middle;resizable=0;points=[];" vertex="1" connectable="0" parent="bNz2frpq777b6b2rO7nt-138">
          <mxGeometry x="-0.8" relative="1" as="geometry">
            <mxPoint y="1" as="offset" />
          </mxGeometry>
        </mxCell>
        <mxCell id="bNz2frpq777b6b2rO7nt-122" value="is slower,&lt;br&gt;stopped, or&lt;br&gt;crashed?" style="strokeWidth=2;html=1;shape=mxgraph.flowchart.decision;whiteSpace=wrap;" vertex="1" parent="1">
          <mxGeometry x="200" y="760" width="120" height="120" as="geometry" />
        </mxCell>
        <mxCell id="bNz2frpq777b6b2rO7nt-129" style="edgeStyle=orthogonalEdgeStyle;rounded=1;orthogonalLoop=1;jettySize=auto;html=1;exitX=0.5;exitY=0;exitDx=0;exitDy=0;exitPerimeter=0;entryX=1;entryY=0.5;entryDx=0;entryDy=0;" edge="1" parent="1" source="bNz2frpq777b6b2rO7nt-123" target="bNz2frpq777b6b2rO7nt-67">
          <mxGeometry relative="1" as="geometry" />
        </mxCell>
        <mxCell id="bNz2frpq777b6b2rO7nt-130" value="Yes" style="edgeLabel;html=1;align=center;verticalAlign=middle;resizable=0;points=[];" vertex="1" connectable="0" parent="bNz2frpq777b6b2rO7nt-129">
          <mxGeometry x="-0.89" y="-1" relative="1" as="geometry">
            <mxPoint as="offset" />
          </mxGeometry>
        </mxCell>
        <mxCell id="bNz2frpq777b6b2rO7nt-123" value="is faster than&lt;br&gt;speed limit?" style="strokeWidth=2;html=1;shape=mxgraph.flowchart.decision;whiteSpace=wrap;fillColor=#f5f5f5;fontColor=#333333;strokeColor=#666666;" vertex="1" parent="1">
          <mxGeometry x="840" y="760" width="120" height="120" as="geometry" />
        </mxCell>
        <mxCell id="bNz2frpq777b6b2rO7nt-134" style="edgeStyle=orthogonalEdgeStyle;rounded=1;orthogonalLoop=1;jettySize=auto;html=1;exitX=1;exitY=0.5;exitDx=0;exitDy=0;exitPerimeter=0;entryX=1;entryY=0.25;entryDx=0;entryDy=0;" edge="1" parent="1" source="bNz2frpq777b6b2rO7nt-131" target="bNz2frpq777b6b2rO7nt-67">
          <mxGeometry relative="1" as="geometry">
            <Array as="points">
              <mxPoint x="980" y="980" />
              <mxPoint x="980" y="660" />
            </Array>
          </mxGeometry>
        </mxCell>
        <mxCell id="bNz2frpq777b6b2rO7nt-135" value="No" style="edgeLabel;html=1;align=center;verticalAlign=middle;resizable=0;points=[];" vertex="1" connectable="0" parent="bNz2frpq777b6b2rO7nt-134">
          <mxGeometry x="-0.95" y="1" relative="1" as="geometry">
            <mxPoint y="1" as="offset" />
          </mxGeometry>
        </mxCell>
        <mxCell id="bNz2frpq777b6b2rO7nt-142" style="edgeStyle=orthogonalEdgeStyle;rounded=1;orthogonalLoop=1;jettySize=auto;html=1;exitX=0;exitY=0.5;exitDx=0;exitDy=0;exitPerimeter=0;entryX=0;entryY=0.5;entryDx=0;entryDy=0;entryPerimeter=0;" edge="1" parent="1" source="bNz2frpq777b6b2rO7nt-131" target="bNz2frpq777b6b2rO7nt-1">
          <mxGeometry relative="1" as="geometry">
            <Array as="points">
              <mxPoint y="980" />
              <mxPoint y="100" />
            </Array>
          </mxGeometry>
        </mxCell>
        <mxCell id="bNz2frpq777b6b2rO7nt-143" value="Yes" style="edgeLabel;html=1;align=center;verticalAlign=middle;resizable=0;points=[];" vertex="1" connectable="0" parent="bNz2frpq777b6b2rO7nt-142">
          <mxGeometry x="-0.9615" y="-1" relative="1" as="geometry">
            <mxPoint as="offset" />
          </mxGeometry>
        </mxCell>
        <mxCell id="bNz2frpq777b6b2rO7nt-131" value="is near or&lt;br&gt;below zero&lt;br&gt;speed?" style="strokeWidth=2;html=1;shape=mxgraph.flowchart.decision;whiteSpace=wrap;" vertex="1" parent="1">
          <mxGeometry x="680" y="920" width="120" height="120" as="geometry" />
        </mxCell>
      </root>
    </mxGraphModel>
  </diagram>
</mxfile>
